<svg width="24" height="17" viewBox="0 0 24 17" fill="none" xmlns="http://www.w3.org/2000/svg">
<g clip-path="url(#clip0_104_14)">
<path fill-rule="evenodd" clip-rule="evenodd" d="M11.3805 3.07999L12.6689 0.677734L14.3578 6.33699L11.8257 5.19222L11.3805 3.07999ZM2.26891 5.59625L0.959044 7.95815L4.96408 9.91744L10.4763 9.53699L2.26891 5.59625ZM1.5389 10.0501L0.23703 12.3994L8.2333 16.3691L21.5589 15.5602L22.8608 13.2108L9.53516 14.0198L1.5389 10.0501Z" fill="#2C3034"/>
<path d="M22.8615 13.2111L9.53968 14.0202L1.47479 10.0411L10.2079 9.51264L2.26893 5.59632L6.16747 2.29451L14.2546 6.27169L12.669 0.677856L20.3967 4.46737L22.8615 13.2111Z" fill="#FDBF1C"/>
</g>
<defs>
<clipPath id="clip0_104_14">
<rect width="23.1111" height="16" fill="white" transform="translate(0 0.5)"/>
</clipPath>
</defs>
</svg>
