<svg width="36" height="35" viewBox="0 0 36 35" fill="none" xmlns="http://www.w3.org/2000/svg">
<path d="M22.4338 3.91848L23.1009 2.59696L22.4338 3.91848C22.8218 4.11439 23.2318 4.26359 23.655 4.36297L27.2615 5.20987C28.0341 5.3913 28.6747 5.92882 28.9876 6.65821L30.4479 10.0629C30.6192 10.4624 30.8374 10.8402 31.0977 11.1884L33.3161 14.1554C33.7913 14.791 33.9365 15.6145 33.7073 16.3744L32.6375 19.9212C32.512 20.3374 32.4362 20.767 32.4118 21.201L32.2041 24.8998C32.1595 25.6922 31.7414 26.4164 31.0774 26.8512L27.9781 28.8805C27.6144 29.1186 27.2802 29.399 26.9825 29.7159L24.4458 32.4158C23.9024 32.9942 23.1166 33.2802 22.3285 33.1864L18.6498 32.7487C18.2181 32.6974 17.7819 32.6974 17.3502 32.7487L13.6715 33.1864C12.8834 33.2802 12.0976 32.9942 11.5542 32.4158L9.01747 29.7159C8.7198 29.399 8.38562 29.1186 8.02193 28.8805L4.92255 26.8512C4.25856 26.4164 3.84045 25.6922 3.79594 24.8998L3.58817 21.201C3.56379 20.767 3.48804 20.3374 3.3625 19.9212L2.29267 16.3744C2.06348 15.6145 2.20869 14.791 2.68394 14.1554L4.90233 11.1884C5.16264 10.8402 5.38076 10.4624 5.55212 10.0629L7.01243 6.65821C7.32527 5.92882 7.96586 5.3913 8.73849 5.20987L12.345 4.36297C12.7682 4.26359 13.1782 4.11439 13.5662 3.91848L16.8734 2.24901C17.5819 1.89136 18.4181 1.89136 19.1266 2.24901L22.4338 3.91848Z" fill="#F9DB6E" stroke="#E53455" stroke-width="3"/>
</svg>
